PathFileType	4	(X/Y/Z)	Kaydara																																																																																																																									
DataRate	CameraRate	NumFrames	NumMarkers	Units	OrigDataRate	OrigDataStartFrame	OrigNumFrames																																																																																																																					
30	30	9	41	mm	30	37	145																																																																																																																					
Frame#	Time	NABA_LFHD			NABA_RFHD			NABA_LBHD			NABA_RBHD			NABA_LFTShould			NABA_RFTShould			NABA_LRRShould			NABA_RRRShould			NABA_T10			NABA_STRN			NABA_TRUN			NABA_LSHO			NABA_LUPA			NABA_LELB			NABA_LFRM			NABA_LWRA			NABA_LWRB			NABA_LFIN			NABA_RSHO			NABA_RUPA			NABA_RELB			NABA_RFRM			NABA_RWRA			NABA_RWRB			NABA_RFIN			NABA_LFWT			NABA_RFWT			NABA_LBWT			NABA_RBWT			NABA_LTHI			NABA_LKNE			NABA_LSHN			NABA_LANK			NABA_LHEE			NABA_LTOE			NABA_RTHI			NABA_RKNE			NABA_RSHN			NABA_RANK			NABA_RHEE			NABA_RTOE		
		X1	Y1	Z1	X2	Y2	Z2	X3	Y3	Z3	X4	Y4	Z4	X5	Y5	Z5	X6	Y6	Z6	X7	Y7	Z7	X8	Y8	Z8	X9	Y9	Z9	X10	Y10	Z10	X11	Y11	Z11	X12	Y12	Z12	X13	Y13	Z13	X14	Y14	Z14	X15	Y15	Z15	X16	Y16	Z16	X17	Y17	Z17	X18	Y18	Z18	X19	Y19	Z19	X20	Y20	Z20	X21	Y21	Z21	X22	Y22	Z22	X23	Y23	Z23	X24	Y24	Z24	X25	Y25	Z25	X26	Y26	Z26	X27	Y27	Z27	X28	Y28	Z28	X29	Y29	Z29	X30	Y30	Z30	X31	Y31	Z31	X32	Y32	Z32	X33	Y33	Z33	X34	Y34	Z34	X35	Y35	Z35	X36	Y36	Z36	X37	Y37	Z37	X38	Y38	Z38	X39	Y39	Z39	X40	Y40	Z40	X41	Y41	Z41
																																																																																																																												
37	1.21	245.55664	1586.26663	-1876.5036	76.92214	1560.45502	-1857.94266	258.77151	1599.66705	-2003.26691	42.42741	1576.18958	-1952.93915	235.40104	1343.52234	-1967.56775	87.54566	1324.944	-1959.44016	225.52225	1396.90826	-2086.12839	81.4333	1390.54657	-2069.34525	159.38271	1228.02719	-2147.13226	173.07232	1286.03958	-1916.15067	177.78492	1189.13551	-1867.18719	322.18334	1369.841	-2022.61337	383.61317	1153.15758	-2072.05124	399.27715	1054.80057	-2058.21533	391.02299	969.3853	-2076.72363	352.69035	826.90842	-1989.35501	423.61485	826.3089	-2004.69864	411.84914	771.3533	-1954.89166	12.02488	1360.51178	-1996.24359	-51.77713	1162.41661	-2065.63156	-79.00296	1033.01147	-2021.00113	-82.6295	935.47394	-2010.53497	-12.29429	817.22214	-1938.5202	-86.64339	804.69727	-1931.44012	-65.67985	769.31725	-1899.13666	294.66583	951.69823	-1961.81427	23.1406	949.95247	-1958.03574	234.93681	991.24832	-2131.84326	71.80554	1026.07582	-2130.87891	295.79563	656.66962	-2098.86261	295.60074	505.53394	-2043.90793	250.87605	307.72339	-2026.8161	277.99967	159.63923	-2100.80154	220.76868	109.44296	-2152.13455	252.99213	82.92269	-1978.10211	18.88398	670.73219	-2098.73932	40.00241	505.0478	-1989.32007	47.59416	332.46693	-2017.67105	39.24914	143.4345	-2087.59933	82.52756	99.53907	-2154.2099	58.86403	83.60412	-1981.49277
38	1.243	244.00318	1585.22507	-1873.08731	75.19918	1559.38171	-1854.96918	257.32912	1599.02954	-1999.65607	40.81303	1575.56534	-1950.03159	233.97676	1342.68692	-1965.41489	87.04292	1324.05151	-1957.97913	224.18365	1396.85242	-2083.6795	80.08575	1390.41199	-2066.88705	157.97928	1228.2486	-2145.45746	171.76416	1284.95819	-1914.76898	176.35651	1187.7607	-1866.12823	320.79121	1369.53552	-2020.48279	382.75398	1153.11012	-2070.25009	398.19481	1054.42299	-2056.77567	390.17952	969.41002	-2076.24222	351.46667	825.9108	-1990.8725	422.31956	825.60425	-2005.36438	409.92149	769.92104	-1956.36139	10.55575	1360.08026	-1994.14459	-53.60219	1162.01065	-2063.87299	-80.75171	1032.67181	-2019.37668	-84.4496	935.14832	-2008.96988	-13.85926	817.01599	-1936.79169	-88.42133	804.35867	-1929.77844	-67.60815	769.15604	-1897.50198	292.86865	951.43005	-1960.64774	21.55922	949.39804	-1957.44247	233.55724	991.21803	-2130.84473	70.37421	1026.09589	-2129.90707	295.43373	656.19263	-2097.23038	294.62872	505.21656	-2041.71738	249.77499	307.32433	-2025.5571	277.69499	159.56825	-2099.71085	220.74564	109.53944	-2151.89941	252.60279	83.01687	-1978.11111	17.80573	670.48645	-2098.22571	39.3194	504.81396	-1988.76129	46.54407	332.11903	-2016.32065	39.38838	143.20431	-2087.14691	82.39522	99.46857	-2154.0477	58.75455	83.59797	-1981.46896
39	1.277	244.69757	1585.27435	-1870.89798	74.02047	1558.39264	-1851.38489	256.26314	1598.25272	-1995.68542	39.77344	1574.71313	-1946.46896	232.85881	1342.25662	-1962.59247	85.44568	1323.35449	-1955.27328	223.1469	1396.89651	-2080.5571	78.93204	1390.30762	-2063.86765	156.86629	1228.56674	-2143.28003	170.45507	1283.86322	-1912.14523	175.06966	1186.54045	-1864.52438	319.71825	1369.07593	-2017.39944	382.09244	1152.84058	-2067.90543	397.29424	1054.14917	-2054.4519	389.37771	969.70406	-2075.09689	350.60024	824.71321	-1992.62451	421.47171	824.73763	-2006.64658	409.04293	768.27255	-1958.76709	9.31139	1359.60007	-1991.29654	-54.83847	1161.6198	-2061.54053	-82.03176	1032.23534	-2017.44446	-85.72712	934.72946	-2007.17575	-15.32739	816.35086	-1935.07507	-89.77839	803.92212	-1928.21838	-69.31286	769.03404	-1895.78491	291.84317	951.03737	-1959.78989	20.52491	948.81012	-1956.61789	232.59815	991.10229	-2129.79065	69.32556	1026.00555	-2129.01367	295.16981	655.91949	-2095.68756	293.894	504.99359	-2040.07629	249.02277	307.01231	-2024.72046	277.38396	159.39735	-2099.42749	220.64087	109.50037	-2151.7926	252.21142	83.00594	-1978.02246	16.74048	669.90738	-2097.0549	38.80609	504.55101	-1987.37869	46.99252	331.73306	-2016.00616	39.43694	142.96299	-2086.69296	82.30599	99.47309	-2153.89313	58.68409	83.63116	-1981.47995
40	1.31	241.85234	1583.49594	-1864.8851	73.11179	1557.4234	-1847.40005	255.65205	1597.75085	-1991.49734	38.9459	1573.82065	-1942.60269	231.93531	1342.01752	-1958.59848	84.91316	1323.10211	-1951.81854	222.34921	1396.98761	-2076.3797	78.05002	1390.48767	-2060.0296	155.98032	1229.28917	-2140.82001	169.42255	1282.92816	-1909.25797	173.79868	1185.0383	-1862.24731	318.98651	1368.90472	-2012.69089	381.63349	1152.80746	-2063.7561	396.23486	1054.03809	-2050.70465	388.61794	970.52658	-2073.36914	350.19161	823.36334	-1994.71512	421.02562	824.01703	-2008.53729	408.73802	766.2075	-1962.00409	8.38189	1359.21768	-1987.54593	-55.84413	1161.23268	-2058.48877	-82.96329	1031.83212	-2014.90814	-86.63775	934.24507	-2005.01938	-16.35237	815.48912	-1933.45383	-90.67406	803.12813	-1926.36536	-70.62894	768.95805	-1893.96179	290.92587	950.78613	-1958.06244	19.36659	948.51913	-1955.47897	231.93943	991.0527	-2128.36029	68.63556	1025.79025	-2127.79877	294.39306	655.52124	-2094.45343	293.47082	504.8716	-2039.25369	248.60264	306.65991	-2024.10385	277.19599	159.30929	-2099.21585	220.57173	109.49886	-2151.90399	252.57515	83.5734	-1978.47336	16.36156	669.67178	-2096.09299	38.21021	504.30626	-1986.25946	46.62661	331.26591	-2014.96399	39.48399	142.77107	-2086.30737	82.31912	99.4837	-2153.72467	58.54171	83.64249	-1981.5065
41	1.343	243.44088	1583.92807	-1861.80054	72.76196	1556.30264	-1842.84271	255.32772	1597.38541	-1986.59622	38.72518	1572.99011	-1937.96341	231.28222	1342.02499	-1953.58276	84.31713	1323.05634	-1947.40829	222.19395	1397.71851	-2072.03033	77.65446	1390.8815	-2055.47607	155.39839	1230.06561	-2137.58987	168.6076	1282.28439	-1905.10223	173.04251	1184.01619	-1859.01398	318.29391	1369.4574	-2008.24036	381.16013	1152.94151	-2058.48145	395.2351	1054.20898	-2046.17493	387.95036	971.9101	-2071.10748	350.17895	822.01889	-1997.39029	421.01646	823.52943	-2010.93719	409.14356	764.04366	-1966.38168	7.81731	1359.22531	-1983.01254	-56.79635	1161.33369	-2054.53644	-83.30572	1031.81099	-2011.52344	-87.0933	934.27032	-2002.3703	-16.62377	814.87564	-1931.57623	-91.07683	802.7504	-1924.53568	-71.53108	769.1301	-1891.90262	290.33878	950.5088	-1956.75842	18.75127	948.21762	-1953.92319	231.39797	991.15532	-2126.69373	68.0889	1025.72945	-2126.02219	294.16983	655.23041	-2092.95944	293.12895	504.63474	-2037.39319	247.91508	306.13342	-2022.76794	276.92385	159.13021	-2099.09348	220.54399	109.61291	-2151.9133	252.78595	84.41653	-1978.89542	16.42096	669.43077	-2094.67163	37.98064	503.94108	-1985.08072	45.79139	330.73296	-2013.22433	39.57977	142.5553	-2085.95261	82.27375	99.43651	-2153.66531	58.16082	83.79499	-1981.65405
42	1.377	241.4641	1581.7778	-1854.76944	72.72429	1555.3125	-1837.54715	255.2902	1596.83441	-1981.26694	38.71694	1572.22488	-1932.5325	231.00016	1342.42569	-1947.64801	83.70936	1323.57468	-1941.95221	222.07981	1398.23288	-2066.409	77.59251	1391.38351	-2050.32242	155.1526	1230.77301	-2133.42484	168.22762	1282.29034	-1899.56512	172.39061	1183.47145	-1854.53186	318.46117	1369.87869	-2001.75201	380.59406	1152.69638	-2052.55981	394.32892	1054.48463	-2040.35614	387.58682	973.79639	-2068.32993	350.46669	820.76622	-2000.55267	421.49269	823.60985	-2013.9711	409.94091	762.09602	-1971.69952	7.65269	1359.52744	-1977.77359	-57.32925	1162.12738	-2049.88586	-83.5367	1032.30026	-2007.74338	-87.22289	934.67834	-1999.29993	-16.54621	814.6521	-1929.31259	-91.18634	802.77153	-1922.37503	-72.07056	769.41452	-1889.61349	290.10357	949.89365	-1955.54688	18.73572	947.31987	-1951.61667	230.88337	991.09894	-2124.7464	67.73599	1025.78606	-2123.46191	294.95842	654.54803	-2090.3569	292.5758	504.01505	-2033.89496	246.28756	305.34718	-2020.78812	276.60364	158.72201	-2097.20306	220.47518	109.63195	-2151.96777	252.28445	85.95322	-1979.52576	16.12377	669.00917	-2092.69974	38.16727	503.53897	-1983.33374	46.61451	330.4108	-2012.78641	39.65451	142.28186	-2085.43945	82.10439	99.44342	-2153.58536	57.90863	83.90644	-1981.74713
43	1.41	242.07848	1580.85587	-1848.74405	73.47308	1554.19937	-1831.38428	255.84774	1596.12045	-1975.21805	39.23752	1571.36017	-1926.33804	231.43444	1343.30292	-1940.8432	84.40882	1323.99979	-1935.30655	222.51543	1398.84964	-2060.13474	77.82564	1391.92963	-2044.27872	155.41692	1231.52733	-2128.35983	168.58093	1282.51556	-1892.72675	172.84542	1183.16711	-1849.10034	318.81369	1370.84351	-1994.61716	380.4686	1153.67661	-2045.67947	394.00421	1055.53467	-2034.58649	387.70859	976.87141	-2065.47119	351.51424	820.02029	-2005.29007	422.33589	824.5343	-2018.14758	411.39336	761.15234	-1978.76617	7.97275	1359.86374	-1971.3414	-57.39856	1163.12843	-2044.43344	-84.05112	1033.22243	-2003.58719	-87.50741	935.23582	-1995.53558	-16.40952	814.88495	-1926.53442	-91.06825	802.90359	-1919.4072	-71.84691	769.48997	-1886.90704	290.6391	948.95248	-1953.20419	19.21832	946.52267	-1948.51151	230.71814	990.90042	-2122.11334	67.91069	1025.95963	-2120.02975	296.17956	653.60893	-2086.64108	291.7572	503.19984	-2029.46518	244.12764	304.4202	-2018.45276	275.95423	158.30414	-2095.87326	220.46772	109.75168	-2152.00562	250.67589	87.49578	-1979.90219	15.92251	668.94005	-2090.62592	38.29244	503.15353	-1981.92383	46.6229	330.037	-2011.79535	39.66709	142.24237	-2085.2713	81.92358	99.4549	-2153.66425	57.69406	84.00859	-1981.89087
44	1.443	243.46212	1580.0795	-1842.07703	74.46447	1553.45337	-1824.50241	256.75018	1595.50644	-1968.19717	40.24926	1570.87006	-1919.38004	232.39489	1344.34372	-1932.8685	87.01798	1323.44391	-1932.15881	223.26267	1399.6991	-2052.73636	78.48423	1392.5441	-2037.0076	156.31019	1232.50511	-2122.22916	169.63812	1282.95776	-1885.0473	174.16506	1182.97897	-1842.36877	319.29131	1371.52756	-1985.22156	381.22627	1154.72229	-2037.21405	393.80661	1056.98647	-2027.04834	388.84205	980.96909	-2062.60422	352.85332	820.59959	-2012.59171	423.89793	826.62476	-2023.19946	412.88696	761.04111	-1987.15576	8.87683	1360.20859	-1964.16763	-56.94685	1164.73198	-2037.95258	-85.25469	1035.03426	-1999.01474	-88.58789	936.31897	-1990.95535	-16.11643	815.45288	-1923.79883	-90.63408	803.20885	-1915.63187	-70.76011	769.65858	-1883.6496	291.38918	947.78618	-1949.42444	19.86434	946.0759	-1944.54926	231.29526	990.93018	-2118.02765	68.89004	1026.53877	-2115.55969	296.92316	652.82066	-2082.65106	290.98303	502.46246	-2025.48141	242.46584	303.69709	-2016.50024	275.17963	158.30839	-2094.40491	220.07236	109.8581	-2152.00241	248.74451	88.99096	-1980.15335	16.45481	669.4529	-2088.81958	38.43498	502.9081	-1981.22574	45.70117	329.96422	-2010.69473	39.53745	142.3931	-2085.5069	81.80593	99.39192	-2153.83499	57.35727	84.15813	-1982.11121
45	1.477	245.82428	1579.92889	-1835.11093	76.01091	1552.97211	-1816.69144	258.25912	1594.9118	-1960.5397	41.81865	1570.38315	-1911.54724	233.92305	1345.50751	-1923.73581	88.27655	1324.78973	-1922.03354	224.84018	1400.27847	-2044.20624	79.99032	1392.97852	-2028.79608	158.15736	1233.13141	-2114.68826	171.33282	1283.69186	-1876.28281	176.05059	1183.35335	-1834.08783	321.03573	1373.3815	-1976.22711	382.39613	1157.54936	-2029.29581	394.56474	1059.58488	-2021.45874	390.46551	986.1451	-2060.66162	354.74899	822.34131	-2020.616	425.85152	830.12924	-2029.1629	413.94272	762.36618	-1996.63177	10.6913	1360.79498	-1955.38239	-56.73444	1167.35657	-2030.23148	-86.32675	1036.7173	-1992.26379	-89.82182	937.98965	-1985.65521	-15.27841	817.2084	-1920.72372	-89.84338	804.39346	-1911.25504	-68.9929	770.80338	-1879.78653	292.52333	946.8338	-1944.23737	20.94756	945.31097	-1939.76654	232.84325	991.33751	-2112.21344	70.8107	1027.48886	-2109.80164	297.73785	652.21466	-2078.55057	290.7192	501.74145	-2021.875	241.14872	302.90831	-2014.59381	274.42015	158.09507	-2093.7442	219.83332	110.07429	-2152.05582	246.8169	89.95321	-1980.38239	17.59883	670.16457	-2086.76941	38.88518	502.71091	-1980.66284	46.40463	329.64283	-2012.41333	39.38969	142.64203	-2085.77072	81.70572	99.37403	-2154.11423	56.8952	84.31683	-1982.41379
